<svg width="202" height="46" viewBox="0 0 202 46" fill="none" xmlns="http://www.w3.org/2000/svg">
<path d="M2.772 37V11.872H19.872V16.732H8.244V21.88H18.216V26.704H8.244V32.14H19.872V37H2.772ZM30.4712 37L22.3712 11.872H27.9152L31.6592 23.932L33.6392 31.816H33.7472L35.6552 23.932L39.3992 11.872H44.7632L36.5912 37H30.4712ZM48.0533 37V11.872H65.1533V16.732H53.5253V21.88H63.4973V26.704H53.5253V32.14H65.1533V37H48.0533ZM77.5884 25.12L75.1764 20.08H75.0684V37H69.9204V11.872H75.8964L82.7724 23.752L85.1844 28.792H85.2924V11.872H90.4404V37H84.4644L77.5884 25.12ZM106.447 16.732V37H100.975V16.732H94.1712V11.872H113.251V16.732H106.447Z" fill="#F7EA00"/>
<path d="M115.882 37V32.644H119.122V16.228H115.882V11.872H127.834V16.228H124.594V32.644H127.834V37H115.882ZM132.393 37V11.872H149.061V16.732H137.865V21.88H147.405V26.704H137.865V37H132.393ZM159.608 37V27.172L151.004 11.872H157.124L162.524 21.88H162.596L167.78 11.872H173.72L165.116 27.136V37H159.608ZM177.107 37.396C176.027 37.396 175.223 37.132 174.695 36.604C174.191 36.052 173.939 35.356 173.939 34.516V33.796C173.939 32.956 174.191 32.272 174.695 31.744C175.223 31.192 176.027 30.916 177.107 30.916C178.187 30.916 178.979 31.192 179.483 31.744C180.011 32.272 180.275 32.956 180.275 33.796V34.516C180.275 35.356 180.011 36.052 179.483 36.604C178.979 37.132 178.187 37.396 177.107 37.396ZM191.024 26.272C190.016 26.272 189.068 26.092 188.18 25.732C187.292 25.348 186.512 24.832 185.84 24.184C185.192 23.512 184.676 22.72 184.292 21.808C183.932 20.896 183.752 19.912 183.752 18.856C183.752 17.8 183.932 16.816 184.292 15.904C184.676 14.992 185.192 14.212 185.84 13.564C186.512 12.892 187.292 12.376 188.18 12.016C189.068 11.632 190.016 11.44 191.024 11.44C192.032 11.44 192.98 11.632 193.868 12.016C194.756 12.376 195.524 12.892 196.172 13.564C196.844 14.212 197.36 14.992 197.72 15.904C198.104 16.816 198.296 17.8 198.296 18.856C198.296 19.912 198.104 20.896 197.72 21.808C197.36 22.72 196.844 23.512 196.172 24.184C195.524 24.832 194.756 25.348 193.868 25.732C192.98 26.092 192.032 26.272 191.024 26.272ZM191.024 24.58C191.744 24.58 192.428 24.472 193.076 24.256C193.724 24.016 194.288 23.68 194.768 23.248C195.248 22.792 195.632 22.252 195.92 21.628C196.208 20.98 196.352 20.248 196.352 19.432V18.28C196.352 17.464 196.208 16.744 195.92 16.12C195.632 15.472 195.248 14.932 194.768 14.5C194.288 14.044 193.724 13.708 193.076 13.492C192.428 13.252 191.744 13.132 191.024 13.132C190.304 13.132 189.62 13.252 188.972 13.492C188.324 13.708 187.76 14.044 187.28 14.5C186.8 14.932 186.416 15.472 186.128 16.12C185.84 16.744 185.696 17.464 185.696 18.28V19.432C185.696 20.248 185.84 20.98 186.128 21.628C186.416 22.252 186.8 22.792 187.28 23.248C187.76 23.68 188.324 24.016 188.972 24.256C189.62 24.472 190.304 24.58 191.024 24.58ZM190.196 22.6H187.892V15.076H191.564C192.572 15.076 193.304 15.316 193.76 15.796C194.216 16.276 194.444 16.876 194.444 17.596C194.444 18.196 194.324 18.7 194.084 19.108C193.844 19.492 193.52 19.78 193.112 19.972L194.66 22.6H192.176L191.024 20.404H190.196V22.6ZM191.096 18.712C191.768 18.712 192.104 18.436 192.104 17.884V17.632C192.104 17.08 191.768 16.804 191.096 16.804H190.196V18.712H191.096Z" fill="#F8F9FA"/>
</svg>
