<svg width="119" height="119" viewBox="0 0 119 119" fill="none" xmlns="http://www.w3.org/2000/svg">
<circle cx="59.5" cy="59.5" r="59.5" fill="#111111"/>
<path d="M39.368 71.432C37.928 71.432 36.644 71.204 35.516 70.748C34.388 70.268 33.428 69.608 32.636 68.768C31.868 67.904 31.28 66.86 30.872 65.636C30.488 64.412 30.296 63.044 30.296 61.532C30.296 60.044 30.488 58.7 30.872 57.5C31.256 56.276 31.82 55.232 32.564 54.368C33.332 53.504 34.268 52.844 35.372 52.388C36.476 51.908 37.736 51.668 39.152 51.668C40.712 51.668 42.044 51.932 43.148 52.46C44.276 52.988 45.188 53.696 45.884 54.584C46.604 55.472 47.12 56.504 47.432 57.68C47.768 58.832 47.936 60.044 47.936 61.316V62.9H35.804V63.188C35.804 64.436 36.14 65.432 36.812 66.176C37.484 66.896 38.54 67.256 39.98 67.256C41.084 67.256 41.984 67.04 42.68 66.608C43.376 66.152 44.024 65.612 44.624 64.988L47.288 68.3C46.448 69.284 45.344 70.052 43.976 70.604C42.632 71.156 41.096 71.432 39.368 71.432ZM39.26 55.592C38.18 55.592 37.328 55.952 36.704 56.672C36.104 57.368 35.804 58.304 35.804 59.48V59.768H42.428V59.444C42.428 58.292 42.164 57.368 41.636 56.672C41.132 55.952 40.34 55.592 39.26 55.592ZM53.4212 44C54.5012 44 55.2812 44.252 55.7612 44.756C56.2652 45.236 56.5172 45.848 56.5172 46.592V47.348C56.5172 48.044 56.4092 48.752 56.1932 49.472C56.0012 50.168 55.7252 50.84 55.3652 51.488C55.0292 52.136 54.6212 52.748 54.1412 53.324C53.6612 53.876 53.1452 54.368 52.5932 54.8H49.2452C50.0372 54.08 50.7092 53.348 51.2612 52.604C51.8372 51.86 52.2692 51.032 52.5572 50.12C51.7892 49.976 51.2252 49.664 50.8652 49.184C50.5052 48.68 50.3252 48.116 50.3252 47.492V46.592C50.3252 45.848 50.5652 45.236 51.0452 44.756C51.5492 44.252 52.3412 44 53.4212 44Z" fill="#F7EA00"/>
<path d="M62.1622 56.24H59.4982V52.1H62.1622V49.868C62.1622 48.044 62.6422 46.676 63.6022 45.764C64.5622 44.828 65.9662 44.36 67.8142 44.36H71.2702V48.5H67.4902V52.1H71.2702V56.24H67.4902V71H62.1622V56.24ZM86.1416 52.1H91.1096L83.8376 73.916C83.3576 75.38 82.6736 76.46 81.7856 77.156C80.9216 77.852 79.6736 78.2 78.0416 78.2H74.7296V74.06H78.2936L78.9416 71.972L72.3176 52.1H77.6096L80.3816 60.92L81.7496 66.392H81.9656L83.3696 60.92L86.1416 52.1Z" fill="#3E00FF"/>
</svg>
